<svg width="30" height="30" viewBox="0 0 30 30" fill="none" xmlns="http://www.w3.org/2000/svg">
<rect width="30" height="30" rx="5" fill="white"/>
<path d="M19.19 5H10.81C7.17 5 5 7.17 5 10.81V19.18C5 22.83 7.17 25 10.81 25H19.18C22.82 25 24.99 22.83 24.99 19.19V10.81C25 7.17 22.83 5 19.19 5ZM15 18.88C12.86 18.88 11.12 17.14 11.12 15C11.12 12.86 12.86 11.12 15 11.12C17.14 11.12 18.88 12.86 18.88 15C18.88 17.14 17.14 18.88 15 18.88ZM20.92 9.88C20.87 10 20.8 10.11 20.71 10.21C20.61 10.3 20.5 10.37 20.38 10.42C20.198 10.4972 19.9971 10.5185 19.803 10.4811C19.6089 10.4437 19.4303 10.3493 19.29 10.21C19.2 10.11 19.13 10 19.08 9.88C19.0286 9.75982 19.0015 9.63069 19 9.5C19 9.37 19.03 9.24 19.08 9.12C19.13 8.99 19.2 8.89 19.29 8.79C19.52 8.56 19.87 8.45 20.19 8.52C20.26 8.53 20.32 8.55 20.38 8.58C20.44 8.6 20.5 8.63 20.56 8.67C20.61 8.7 20.66 8.75 20.71 8.79C20.8 8.89 20.87 8.99 20.92 9.12C20.97 9.24 21 9.37 21 9.5C21 9.63 20.97 9.76 20.92 9.88Z" fill="#00A0B1"/>
</svg>
