<svg width="153" height="27" viewBox="0 0 153 27" fill="none" xmlns="http://www.w3.org/2000/svg">
<path d="M15.4461 1.8865L17.7639 6.52208C18.08 7.16738 18.9228 7.78633 19.634 7.90485L23.835 8.60283C26.5215 9.05058 27.1536 10.9996 25.2177 12.9223L21.9518 16.1883C21.3987 16.7414 21.0958 17.8081 21.267 18.572L22.202 22.6149C22.9395 25.8151 21.2406 27.053 18.4092 25.3805L14.4716 23.0495C13.7605 22.6281 12.5884 22.6281 11.8641 23.0495L7.9265 25.3805C5.10827 27.053 3.39627 25.8019 4.13375 22.6149L5.06876 18.572C5.23996 17.8081 4.93707 16.7414 4.38396 16.1883L1.11798 12.9223C-0.804732 10.9996 -0.185775 9.05058 2.50076 8.60283L6.70175 7.90485C7.39973 7.78633 8.24256 7.16738 8.55862 6.52208L10.8764 1.8865C12.1407 -0.628833 14.1951 -0.628833 15.4461 1.8865Z" fill="#F4B46A"/>
<path d="M141.871 1.8865L144.189 6.52208C144.505 7.16738 145.348 7.78633 146.059 7.90485L150.26 8.60283C152.946 9.05058 153.579 10.9996 151.643 12.9223L148.377 16.1883C147.824 16.7414 147.521 17.8081 147.692 18.572L148.627 22.6149C149.364 25.8151 147.666 27.053 144.834 25.3805L140.897 23.0495C140.185 22.6281 139.013 22.6281 138.289 23.0495L134.351 25.3805C131.533 27.053 129.821 25.8019 130.559 22.6149L131.494 18.572C131.665 17.8081 131.362 16.7414 130.809 16.1883L127.543 12.9223C125.62 10.9996 126.239 9.05058 128.926 8.60283L133.127 7.90485C133.825 7.78633 134.668 7.16738 134.984 6.52208L137.301 1.8865C138.566 -0.628833 140.62 -0.628833 141.871 1.8865Z" fill="#F4B46A"/>
<path d="M78.6586 1.8865L80.9764 6.52208C81.2925 7.16738 82.1353 7.78633 82.8465 7.90485L87.0475 8.60283C89.734 9.05058 90.3661 10.9996 88.4302 12.9223L85.1643 16.1883C84.6112 16.7414 84.3083 17.8081 84.4795 18.572L85.4145 22.6149C86.152 25.8151 84.4531 27.053 81.6217 25.3805L77.6841 23.0495C76.973 22.6281 75.8009 22.6281 75.0766 23.0495L71.139 25.3805C68.3208 27.053 66.6088 25.8019 67.3462 22.6149L68.2813 18.572C68.4525 17.8081 68.1496 16.7414 67.5965 16.1883L64.3305 12.9223C62.4078 10.9996 63.0267 9.05058 65.7132 8.60283L69.9142 7.90485C70.6122 7.78633 71.4551 7.16738 71.7711 6.52208L74.0889 1.8865C75.3532 -0.628833 77.4076 -0.628833 78.6586 1.8865Z" fill="#F4B46A"/>
<path d="M47.0524 1.8865L49.3702 6.52208C49.6863 7.16738 50.5291 7.78633 51.2402 7.90485L55.4412 8.60283C58.1278 9.05058 58.7599 10.9996 56.824 12.9223L53.558 16.1883C53.0049 16.7414 52.702 17.8081 52.8732 18.572L53.8082 22.6149C54.5457 25.8151 52.8469 27.053 50.0155 25.3805L46.0779 23.0495C45.3667 22.6281 44.1947 22.6281 43.4704 23.0495L39.5328 25.3805C36.7145 27.053 35.0025 25.8019 35.74 22.6149L36.675 18.572C36.8462 17.8081 36.5433 16.7414 35.9902 16.1883L32.7242 12.9223C30.8015 10.9996 31.4205 9.05058 34.107 8.60283L38.308 7.90485C39.006 7.78633 39.8488 7.16738 40.1649 6.52208L42.4827 1.8865C43.7469 -0.628833 45.8013 -0.628833 47.0524 1.8865Z" fill="#F4B46A"/>
<path d="M110.265 1.8865L112.583 6.52208C112.899 7.16738 113.742 7.78633 114.453 7.90485L118.654 8.60283C121.34 9.05058 121.972 10.9996 120.037 12.9223L116.771 16.1883C116.217 16.7414 115.915 17.8081 116.086 18.572L117.021 22.6149C117.758 25.8151 116.059 27.053 113.228 25.3805L109.29 23.0495C108.579 22.6281 107.407 22.6281 106.683 23.0495L102.745 25.3805C99.927 27.053 98.215 25.8019 98.9525 22.6149L99.8875 18.572C100.059 17.8081 99.7558 16.7414 99.2027 16.1883L95.9367 12.9223C94.014 10.9996 94.633 9.05058 97.3195 8.60283L101.521 7.90485C102.218 7.78633 103.061 7.16738 103.377 6.52208L105.695 1.8865C106.959 -0.628833 109.014 -0.628833 110.265 1.8865Z" fill="#F4B46A"/>
</svg>
