<svg width="126" height="22" viewBox="0 0 126 22" fill="none" xmlns="http://www.w3.org/2000/svg">
<path d="M12.7063 1.55187L14.613 5.36521C14.873 5.89604 15.5663 6.40521 16.1513 6.50271L19.6072 7.07687C21.8172 7.44521 22.3372 9.04854 20.7447 10.6302L18.058 13.3169C17.603 13.7719 17.3538 14.6494 17.4947 15.2777L18.2638 18.6035C18.8705 21.236 17.473 22.2544 15.1438 20.8785L11.9047 18.961C11.3197 18.6144 10.3555 18.6144 9.75968 18.961L6.52051 20.8785C4.20218 22.2544 2.79384 21.2252 3.40051 18.6035L4.16968 15.2777C4.31051 14.6494 4.06134 13.7719 3.60634 13.3169L0.919677 10.6302C-0.66199 9.04854 -0.152823 7.44521 2.05718 7.07687L5.51301 6.50271C6.08718 6.40521 6.78051 5.89604 7.04051 5.36521L8.94718 1.55187C9.98718 -0.517292 11.6772 -0.517292 12.7063 1.55187Z" fill="#F4B46A"/>
<path d="M116.706 1.55187L118.613 5.36521C118.873 5.89604 119.566 6.40521 120.151 6.50271L123.607 7.07687C125.817 7.44521 126.337 9.04854 124.745 10.6302L122.058 13.3169C121.603 13.7719 121.354 14.6494 121.495 15.2777L122.264 18.6035C122.871 21.236 121.473 22.2544 119.144 20.8785L115.905 18.961C115.32 18.6144 114.356 18.6144 113.76 18.961L110.521 20.8785C108.202 22.2544 106.794 21.2252 107.401 18.6035L108.17 15.2777C108.311 14.6494 108.061 13.7719 107.606 13.3169L104.92 10.6302C103.338 9.04854 103.847 7.44521 106.057 7.07687L109.513 6.50271C110.087 6.40521 110.781 5.89604 111.041 5.36521L112.947 1.55187C113.987 -0.517292 115.677 -0.517292 116.706 1.55187Z" fill="#F4B46A"/>
<path d="M64.7063 1.55187L66.613 5.36521C66.873 5.89604 67.5663 6.40521 68.1513 6.50271L71.6072 7.07687C73.8172 7.44521 74.3372 9.04854 72.7447 10.6302L70.058 13.3169C69.603 13.7719 69.3538 14.6494 69.4947 15.2777L70.2638 18.6035C70.8705 21.236 69.473 22.2544 67.1438 20.8785L63.9047 18.961C63.3197 18.6144 62.3555 18.6144 61.7597 18.961L58.5205 20.8785C56.2022 22.2544 54.7938 21.2252 55.4005 18.6035L56.1697 15.2777C56.3105 14.6494 56.0613 13.7719 55.6063 13.3169L52.9197 10.6302C51.338 9.04854 51.8472 7.44521 54.0572 7.07687L57.513 6.50271C58.0872 6.40521 58.7805 5.89604 59.0405 5.36521L60.9472 1.55187C61.9872 -0.517292 63.6772 -0.517292 64.7063 1.55187Z" fill="#F4B46A"/>
<path d="M38.7063 1.55187L40.613 5.36521C40.873 5.89604 41.5663 6.40521 42.1513 6.50271L45.6072 7.07687C47.8172 7.44521 48.3372 9.04854 46.7447 10.6302L44.058 13.3169C43.603 13.7719 43.3538 14.6494 43.4947 15.2777L44.2638 18.6035C44.8705 21.236 43.473 22.2544 41.1438 20.8785L37.9047 18.961C37.3197 18.6144 36.3555 18.6144 35.7597 18.961L32.5205 20.8785C30.2022 22.2544 28.7938 21.2252 29.4005 18.6035L30.1697 15.2777C30.3105 14.6494 30.0613 13.7719 29.6063 13.3169L26.9197 10.6302C25.338 9.04854 25.8472 7.44521 28.0572 7.07687L31.513 6.50271C32.0872 6.40521 32.7805 5.89604 33.0405 5.36521L34.9472 1.55187C35.9872 -0.517292 37.6772 -0.517292 38.7063 1.55187Z" fill="#F4B46A"/>
<path d="M90.7063 1.55187L92.613 5.36521C92.873 5.89604 93.5663 6.40521 94.1513 6.50271L97.6072 7.07687C99.8172 7.44521 100.337 9.04854 98.7447 10.6302L96.058 13.3169C95.603 13.7719 95.3538 14.6494 95.4947 15.2777L96.2638 18.6035C96.8705 21.236 95.473 22.2544 93.1438 20.8785L89.9047 18.961C89.3197 18.6144 88.3555 18.6144 87.7597 18.961L84.5205 20.8785C82.2022 22.2544 80.7938 21.2252 81.4005 18.6035L82.1697 15.2777C82.3105 14.6494 82.0613 13.7719 81.6063 13.3169L78.9197 10.6302C77.338 9.04854 77.8472 7.44521 80.0572 7.07687L83.513 6.50271C84.0872 6.40521 84.7805 5.89604 85.0405 5.36521L86.9472 1.55187C87.9872 -0.517292 89.6772 -0.517292 90.7063 1.55187Z" fill="#F4B46A"/>
</svg>
