<svg width="30" height="30" viewBox="0 0 30 30" fill="none" xmlns="http://www.w3.org/2000/svg">
<rect width="30" height="30" rx="5" fill="white"/>
<path d="M25 19.19C25 22.83 22.83 25 19.19 25H18C17.45 25 17 24.55 17 24V18.23C17 17.96 17.22 17.73 17.49 17.73L19.25 17.7C19.39 17.69 19.51 17.59 19.54 17.45L19.89 15.54C19.8968 15.4967 19.8941 15.4525 19.8822 15.4103C19.8702 15.3681 19.8492 15.3291 19.8207 15.2958C19.7922 15.2625 19.7568 15.2358 19.717 15.2176C19.6771 15.1993 19.6338 15.1899 19.59 15.19L17.46 15.22C17.18 15.22 16.96 15 16.95 14.73L16.91 12.28C16.91 12.12 17.04 11.98 17.21 11.98L19.61 11.94C19.78 11.94 19.91 11.81 19.91 11.64L19.87 9.24C19.87 9.07 19.74 8.94 19.57 8.94L16.87 8.98C16.4759 8.98599 16.0868 9.06969 15.725 9.22632C15.3633 9.38295 15.0361 9.60942 14.762 9.89276C14.488 10.1761 14.2725 10.5107 14.128 10.8775C13.9835 11.2442 13.9128 11.6359 13.92 12.03L13.97 14.78C13.98 15.06 13.76 15.28 13.48 15.29L12.28 15.31C12.11 15.31 11.98 15.44 11.98 15.61L12.01 17.51C12.01 17.68 12.14 17.81 12.31 17.81L13.51 17.79C13.79 17.79 14.01 18.01 14.02 18.28L14.11 23.98C14.12 24.54 13.67 25 13.11 25H10.81C7.17 25 5 22.83 5 19.18V10.81C5 7.17 7.17 5 10.81 5H19.19C22.83 5 25 7.17 25 10.81V19.19Z" fill="#00A0B1"/>
</svg>
