<svg width="171" height="64" viewBox="0 0 171 64" fill="none" xmlns="http://www.w3.org/2000/svg">
<path d="M6.684 26.28C5.43333 26.28 4.276 26.0373 3.212 25.552C2.16667 25.0667 1.308 24.3667 0.636 23.452L2.708 20.96C3.24933 21.7067 3.83733 22.2667 4.472 22.64C5.12533 23.0133 5.83467 23.2 6.6 23.2C8.63467 23.2 9.652 21.996 9.652 19.588V9.452H2.68V6.4H13.292V19.392C13.292 21.7067 12.7227 23.4333 11.584 24.572C10.464 25.7107 8.83067 26.28 6.684 26.28ZM24.7816 26.196C23.251 26.196 21.8883 25.8693 20.6936 25.216C19.499 24.544 18.5563 23.6293 17.8656 22.472C17.175 21.3147 16.8296 19.9987 16.8296 18.524C16.8296 17.0307 17.175 15.7147 17.8656 14.576C18.5563 13.4187 19.499 12.5133 20.6936 11.86C21.8883 11.2067 23.251 10.88 24.7816 10.88C26.331 10.88 27.703 11.2067 28.8976 11.86C30.111 12.5133 31.0536 13.4093 31.7256 14.548C32.4163 15.6867 32.7616 17.012 32.7616 18.524C32.7616 19.9987 32.4163 21.3147 31.7256 22.472C31.0536 23.6293 30.111 24.544 28.8976 25.216C27.703 25.8693 26.331 26.196 24.7816 26.196ZM24.7816 23.2C25.6403 23.2 26.4056 23.0133 27.0776 22.64C27.7496 22.2667 28.2723 21.7253 28.6456 21.016C29.0376 20.3067 29.2336 19.476 29.2336 18.524C29.2336 17.5533 29.0376 16.7227 28.6456 16.032C28.2723 15.3227 27.7496 14.7813 27.0776 14.408C26.4056 14.0347 25.6496 13.848 24.8096 13.848C23.951 13.848 23.1856 14.0347 22.5136 14.408C21.8603 14.7813 21.3376 15.3227 20.9456 16.032C20.5536 16.7227 20.3576 17.5533 20.3576 18.524C20.3576 19.476 20.5536 20.3067 20.9456 21.016C21.3376 21.7253 21.8603 22.2667 22.5136 22.64C23.1856 23.0133 23.9416 23.2 24.7816 23.2ZM42.4365 26.196C41.1672 26.196 40.0472 25.9627 39.0765 25.496C38.1058 25.0107 37.3498 24.2827 36.8085 23.312C36.2672 22.3227 35.9965 21.0813 35.9965 19.588V11.048H39.4965V19.112C39.4965 20.456 39.7952 21.464 40.3925 22.136C41.0085 22.7893 41.8765 23.116 42.9965 23.116C43.8178 23.116 44.5272 22.948 45.1245 22.612C45.7405 22.276 46.2165 21.772 46.5525 21.1C46.9072 20.428 47.0845 19.5973 47.0845 18.608V11.048H50.5845V26H47.2525V21.968L47.8405 23.2C47.3365 24.1707 46.5992 24.9173 45.6285 25.44C44.6578 25.944 43.5938 26.196 42.4365 26.196ZM55.1671 26V11.048H58.4991V15.164L58.1071 13.96C58.5551 12.952 59.2551 12.1867 60.2071 11.664C61.1778 11.1413 62.3818 10.88 63.8191 10.88V14.212C63.6698 14.1747 63.5298 14.156 63.3991 14.156C63.2684 14.1373 63.1378 14.128 63.0071 14.128C61.6818 14.128 60.6271 14.52 59.8431 15.304C59.0591 16.0693 58.6671 17.2173 58.6671 18.748V26H55.1671ZM75.2722 10.88C76.4669 10.88 77.5309 11.1133 78.4642 11.58C79.4162 12.0467 80.1629 12.7653 80.7042 13.736C81.2455 14.688 81.5162 15.92 81.5162 17.432V26H78.0162V17.88C78.0162 16.5547 77.6989 15.5653 77.0642 14.912C76.4482 14.2587 75.5802 13.932 74.4602 13.932C73.6389 13.932 72.9109 14.1 72.2762 14.436C71.6415 14.772 71.1469 15.276 70.7922 15.948C70.4562 16.6013 70.2882 17.432 70.2882 18.44V26H66.7882V11.048H70.1202V15.08L69.5322 13.848C70.0549 12.896 70.8109 12.168 71.8002 11.664C72.8082 11.1413 73.9655 10.88 75.2722 10.88ZM93.0115 26.196C91.3502 26.196 89.8942 25.8693 88.6435 25.216C87.4115 24.544 86.4502 23.6293 85.7595 22.472C85.0875 21.3147 84.7515 19.9987 84.7515 18.524C84.7515 17.0307 85.0782 15.7147 85.7315 14.576C86.4035 13.4187 87.3182 12.5133 88.4755 11.86C89.6515 11.2067 90.9862 10.88 92.4795 10.88C93.9355 10.88 95.2328 11.1973 96.3715 11.832C97.5102 12.4667 98.4062 13.3627 99.0595 14.52C99.7128 15.6773 100.04 17.04 100.04 18.608C100.04 18.7573 100.03 18.9253 100.012 19.112C100.012 19.2987 100.002 19.476 99.9835 19.644H87.5235V17.32H98.1355L96.7635 18.048C96.7822 17.1893 96.6048 16.4333 96.2315 15.78C95.8582 15.1267 95.3448 14.6133 94.6915 14.24C94.0568 13.8667 93.3195 13.68 92.4795 13.68C91.6208 13.68 90.8648 13.8667 90.2115 14.24C89.5768 14.6133 89.0728 15.136 88.6995 15.808C88.3448 16.4613 88.1675 17.236 88.1675 18.132V18.692C88.1675 19.588 88.3728 20.3813 88.7835 21.072C89.1942 21.7627 89.7728 22.2947 90.5195 22.668C91.2662 23.0413 92.1248 23.228 93.0955 23.228C93.9355 23.228 94.6915 23.0973 95.3635 22.836C96.0355 22.5747 96.6328 22.164 97.1555 21.604L99.0315 23.76C98.3595 24.544 97.5102 25.1507 96.4835 25.58C95.4755 25.9907 94.3182 26.196 93.0115 26.196ZM104.36 31.628C103.632 31.628 102.904 31.5067 102.176 31.264C101.448 31.0213 100.841 30.6853 100.356 30.256L101.756 27.68C102.111 27.9973 102.512 28.2493 102.96 28.436C103.408 28.6227 103.865 28.716 104.332 28.716C104.967 28.716 105.48 28.5573 105.872 28.24C106.264 27.9227 106.628 27.3907 106.964 26.644L107.832 24.684L108.112 24.264L113.768 11.048H117.128L110.128 27.204C109.661 28.324 109.139 29.2107 108.56 29.864C108 30.5173 107.365 30.9747 106.656 31.236C105.965 31.4973 105.2 31.628 104.36 31.628ZM107.44 26.532L100.692 11.048H104.332L109.82 23.956L107.44 26.532ZM6.684 58.28C5.43333 58.28 4.276 58.0373 3.212 57.552C2.16667 57.0667 1.308 56.3667 0.636 55.452L2.708 52.96C3.24933 53.7067 3.83733 54.2667 4.472 54.64C5.12533 55.0133 5.83467 55.2 6.6 55.2C8.63467 55.2 9.652 53.996 9.652 51.588V41.452H2.68V38.4H13.292V51.392C13.292 53.7067 12.7227 55.4333 11.584 56.572C10.464 57.7107 8.83067 58.28 6.684 58.28ZM24.7816 58.196C23.251 58.196 21.8883 57.8693 20.6936 57.216C19.499 56.544 18.5563 55.6293 17.8656 54.472C17.175 53.3147 16.8296 51.9987 16.8296 50.524C16.8296 49.0307 17.175 47.7147 17.8656 46.576C18.5563 45.4187 19.499 44.5133 20.6936 43.86C21.8883 43.2067 23.251 42.88 24.7816 42.88C26.331 42.88 27.703 43.2067 28.8976 43.86C30.111 44.5133 31.0536 45.4093 31.7256 46.548C32.4163 47.6867 32.7616 49.012 32.7616 50.524C32.7616 51.9987 32.4163 53.3147 31.7256 54.472C31.0536 55.6293 30.111 56.544 28.8976 57.216C27.703 57.8693 26.331 58.196 24.7816 58.196ZM24.7816 55.2C25.6403 55.2 26.4056 55.0133 27.0776 54.64C27.7496 54.2667 28.2723 53.7253 28.6456 53.016C29.0376 52.3067 29.2336 51.476 29.2336 50.524C29.2336 49.5533 29.0376 48.7227 28.6456 48.032C28.2723 47.3227 27.7496 46.7813 27.0776 46.408C26.4056 46.0347 25.6496 45.848 24.8096 45.848C23.951 45.848 23.1856 46.0347 22.5136 46.408C21.8603 46.7813 21.3376 47.3227 20.9456 48.032C20.5536 48.7227 20.3576 49.5533 20.3576 50.524C20.3576 51.476 20.5536 52.3067 20.9456 53.016C21.3376 53.7253 21.8603 54.2667 22.5136 54.64C23.1856 55.0133 23.9416 55.2 24.7816 55.2ZM42.4365 58.196C41.1672 58.196 40.0472 57.9627 39.0765 57.496C38.1058 57.0107 37.3498 56.2827 36.8085 55.312C36.2672 54.3227 35.9965 53.0813 35.9965 51.588V43.048H39.4965V51.112C39.4965 52.456 39.7952 53.464 40.3925 54.136C41.0085 54.7893 41.8765 55.116 42.9965 55.116C43.8178 55.116 44.5272 54.948 45.1245 54.612C45.7405 54.276 46.2165 53.772 46.5525 53.1C46.9072 52.428 47.0845 51.5973 47.0845 50.608V43.048H50.5845V58H47.2525V53.968L47.8405 55.2C47.3365 56.1707 46.5992 56.9173 45.6285 57.44C44.6578 57.944 43.5938 58.196 42.4365 58.196ZM55.1671 58V43.048H58.4991V47.164L58.1071 45.96C58.5551 44.952 59.2551 44.1867 60.2071 43.664C61.1778 43.1413 62.3818 42.88 63.8191 42.88V46.212C63.6698 46.1747 63.5298 46.156 63.3991 46.156C63.2684 46.1373 63.1378 46.128 63.0071 46.128C61.6818 46.128 60.6271 46.52 59.8431 47.304C59.0591 48.0693 58.6671 49.2173 58.6671 50.748V58H55.1671ZM75.2722 42.88C76.4669 42.88 77.5309 43.1133 78.4642 43.58C79.4162 44.0467 80.1629 44.7653 80.7042 45.736C81.2455 46.688 81.5162 47.92 81.5162 49.432V58H78.0162V49.88C78.0162 48.5547 77.6989 47.5653 77.0642 46.912C76.4482 46.2587 75.5802 45.932 74.4602 45.932C73.6389 45.932 72.9109 46.1 72.2762 46.436C71.6415 46.772 71.1469 47.276 70.7922 47.948C70.4562 48.6013 70.2882 49.432 70.2882 50.44V58H66.7882V43.048H70.1202V47.08L69.5322 45.848C70.0549 44.896 70.8109 44.168 71.8002 43.664C72.8082 43.1413 73.9655 42.88 75.2722 42.88ZM95.1682 58V54.976L94.9722 54.332V49.04C94.9722 48.0133 94.6642 47.22 94.0482 46.66C93.4322 46.0813 92.4988 45.792 91.2482 45.792C90.4082 45.792 89.5775 45.9227 88.7562 46.184C87.9535 46.4453 87.2722 46.8093 86.7122 47.276L85.3402 44.728C86.1428 44.112 87.0948 43.6547 88.1962 43.356C89.3162 43.0387 90.4735 42.88 91.6682 42.88C93.8335 42.88 95.5042 43.4027 96.6802 44.448C97.8748 45.4747 98.4722 47.0707 98.4722 49.236V58H95.1682ZM90.4642 58.196C89.3442 58.196 88.3642 58.0093 87.5242 57.636C86.6842 57.244 86.0308 56.712 85.5642 56.04C85.1162 55.3493 84.8922 54.5747 84.8922 53.716C84.8922 52.876 85.0882 52.12 85.4802 51.448C85.8908 50.776 86.5535 50.244 87.4682 49.852C88.3828 49.46 89.5962 49.264 91.1082 49.264H95.4482V51.588H91.3602C90.1655 51.588 89.3628 51.784 88.9522 52.176C88.5415 52.5493 88.3362 53.016 88.3362 53.576C88.3362 54.2107 88.5882 54.7147 89.0922 55.088C89.5962 55.4613 90.2962 55.648 91.1922 55.648C92.0508 55.648 92.8162 55.452 93.4882 55.06C94.1788 54.668 94.6735 54.0893 94.9722 53.324L95.5602 55.424C95.2242 56.3013 94.6175 56.9827 93.7402 57.468C92.8815 57.9533 91.7895 58.196 90.4642 58.196ZM102.964 58V37.224H106.464V58H102.964ZM115.678 58.196C114.427 58.196 113.223 58.0373 112.066 57.72C110.927 57.384 110.022 56.9827 109.35 56.516L110.694 53.856C111.366 54.2853 112.168 54.64 113.102 54.92C114.035 55.2 114.968 55.34 115.902 55.34C117.003 55.34 117.796 55.1907 118.282 54.892C118.786 54.5933 119.038 54.192 119.038 53.688C119.038 53.2773 118.87 52.9693 118.534 52.764C118.198 52.54 117.759 52.372 117.218 52.26C116.676 52.148 116.07 52.0453 115.398 51.952C114.744 51.8587 114.082 51.7373 113.41 51.588C112.756 51.42 112.159 51.1867 111.618 50.888C111.076 50.5707 110.638 50.1507 110.302 49.628C109.966 49.1053 109.798 48.4147 109.798 47.556C109.798 46.604 110.068 45.7827 110.61 45.092C111.151 44.3827 111.907 43.8413 112.878 43.468C113.867 43.076 115.034 42.88 116.378 42.88C117.386 42.88 118.403 42.992 119.43 43.216C120.456 43.44 121.306 43.7573 121.978 44.168L120.634 46.828C119.924 46.3987 119.206 46.1093 118.478 45.96C117.768 45.792 117.059 45.708 116.35 45.708C115.286 45.708 114.492 45.8667 113.97 46.184C113.466 46.5013 113.214 46.9027 113.214 47.388C113.214 47.836 113.382 48.172 113.718 48.396C114.054 48.62 114.492 48.7973 115.034 48.928C115.575 49.0587 116.172 49.1707 116.826 49.264C117.498 49.3387 118.16 49.46 118.814 49.628C119.467 49.796 120.064 50.0293 120.606 50.328C121.166 50.608 121.614 51.0093 121.95 51.532C122.286 52.0547 122.454 52.736 122.454 53.576C122.454 54.5093 122.174 55.3213 121.614 56.012C121.072 56.7027 120.298 57.244 119.29 57.636C118.282 58.0093 117.078 58.196 115.678 58.196Z" fill="white"/>
<path d="M161.715 13.7647H148.301C142.474 13.7647 139 17.0336 139 22.5169V35.1253C139 40.6237 142.474 43.8925 148.301 43.8925H161.699C167.526 43.8925 171 40.6237 171 35.1404V22.5169C171.016 17.0336 167.542 13.7647 161.715 13.7647ZM154.208 36.7372C154.208 37.2795 153.631 37.641 153.103 37.4301C151.166 36.6468 148.637 35.9237 146.876 35.7128L146.572 35.6827C145.595 35.5622 144.795 34.7036 144.795 33.7696V22.1704C144.795 21.0105 145.787 20.1518 147.004 20.2422C149.005 20.3929 151.966 21.2967 153.823 22.2909C154.08 22.4265 154.208 22.6826 154.208 22.9387V36.7372ZM165.221 33.7545C165.221 34.6885 164.421 35.5471 163.444 35.6677L163.108 35.6978C161.363 35.9237 158.85 36.6317 156.913 37.4C156.385 37.6109 155.808 37.2494 155.808 36.7071V22.9236C155.806 22.7896 155.842 22.6575 155.913 22.541C155.983 22.4245 156.085 22.3278 156.209 22.2608C158.066 21.2816 160.963 20.4079 162.932 20.2422H162.996C164.229 20.2422 165.221 21.1762 165.221 22.3361V33.7545Z" fill="white"/>
<path d="M164.249 27.5486L164.249 27.5485L158.83 25.3288L158.828 25.3282L157.623 24.8428L157.611 24.838L157.599 24.832C157.465 24.7611 157.35 24.6585 157.265 24.5326C157.181 24.4066 157.13 24.2615 157.119 24.1105L157.118 24.1011V24.0917V20.7117C157.118 20.2421 156.933 19.709 156.621 19.2299C156.31 18.7519 155.887 18.3507 155.437 18.1313C155.158 17.9987 154.82 17.9986 154.54 18.1311C154.097 18.35 153.676 18.7534 153.366 19.2344C153.055 19.7167 152.871 20.2529 152.871 20.7227V24.1028C152.871 24.2661 152.806 24.4221 152.723 24.5443C152.639 24.6675 152.52 24.7809 152.38 24.8477L152.367 24.8537L152.367 24.8533L145.751 27.5596L145.748 27.5609L145.748 27.5609C145.438 27.6825 145.144 27.9352 144.927 28.2514C144.709 28.568 144.583 28.9254 144.583 29.2391V30.6972C144.583 31.0993 144.739 31.3598 144.951 31.4913C145.166 31.6249 145.493 31.6589 145.898 31.4931L164.249 27.5486ZM164.249 27.5486C164.56 27.6756 164.855 27.9318 165.073 28.2496C165.291 28.5679 165.417 28.9255 165.417 29.2391V30.6972C165.417 31.0993 165.261 31.3598 165.049 31.4913M164.249 27.5486L165.049 31.4913M165.049 31.4913C164.834 31.6249 164.507 31.6589 164.102 31.4931L165.049 31.4913ZM151.712 29.1076L145.898 31.4931L152.468 34.0481C152.594 33.9284 152.695 33.7601 152.764 33.5955C152.833 33.4305 152.882 33.2422 152.882 33.072V29.8577C152.882 29.554 152.761 29.2871 152.523 29.1379C152.288 28.9905 151.994 28.9911 151.713 29.1073C151.713 29.1074 151.713 29.1075 151.712 29.1076ZM149.776 36.6217L152.468 34.0484L164.102 31.4931L158.287 29.1072L158.287 29.1072L158.281 29.1049C157.999 28.9977 157.707 28.9959 157.473 29.1417C157.235 29.2906 157.118 29.5562 157.118 29.8577V33.072C157.118 33.2424 157.167 33.4312 157.238 33.5975C157.309 33.7621 157.413 33.9306 157.546 34.0506L160.236 36.6217L160.236 36.6221C160.332 36.7135 160.415 36.865 160.457 37.0421C160.5 37.2191 160.496 37.3921 160.451 37.5182L160.451 37.5187L159.93 39.0192C159.929 39.0195 159.929 39.0197 159.929 39.02C159.753 39.5135 159.158 39.7605 158.648 39.5399L155.913 37.3522C155.913 37.3519 155.912 37.3516 155.912 37.3513C155.402 36.9346 154.586 36.9346 154.077 37.3513C154.076 37.3516 154.076 37.3519 154.075 37.3522L151.339 39.541C150.831 39.7702 150.241 39.5144 150.085 39.0268L150.085 39.0267L150.083 39.021L149.561 37.5204C149.561 37.5201 149.561 37.5199 149.561 37.5197C149.516 37.3861 149.512 37.2123 149.554 37.0383C149.596 36.8636 149.678 36.7142 149.775 36.6221L149.776 36.6217Z" fill="white" stroke="#363636" stroke-width="0.5"/>
</svg>
