<svg width="30" height="30" viewBox="0 0 30 30" fill="none" xmlns="http://www.w3.org/2000/svg">
<rect width="30" height="30" rx="5" fill="white"/>
<path d="M12.2093 22H6.62791C5.73488 22 5 21.2393 5 20.3148V10.6852C5 9.76074 5.73488 9 6.62791 9H11.2791C13.2047 9 14.7674 10.6178 14.7674 12.6111C14.7674 13.603 14.3767 14.4985 13.7535 15.1533C14.907 15.7407 15.6977 16.9733 15.6977 18.3889C15.6977 20.3822 14.1349 22 12.2093 22ZM6.39535 16.2222V20.3148C6.39535 20.4496 6.49767 20.5556 6.62791 20.5556H12.2093C13.3628 20.5556 14.3023 19.583 14.3023 18.3889C14.3023 17.1948 13.3628 16.2222 12.2093 16.2222H6.39535ZM6.39535 14.7778H11.2791C12.4326 14.7778 13.3721 13.8052 13.3721 12.6111C13.3721 11.417 12.4326 10.4444 11.2791 10.4444H6.62791C6.49767 10.4444 6.39535 10.5504 6.39535 10.6852V14.7778ZM22.1349 22H20.5814C18.1442 22 16.1628 19.9489 16.1628 17.4259C16.1628 14.903 18.1442 12.8519 20.5814 12.8519C23.0186 12.8519 25 14.903 25 17.4259C25 17.8207 24.6837 18.1481 24.3023 18.1481H17.6419C17.9581 19.5252 19.1581 20.5556 20.5814 20.5556H22.1349C22.5163 20.5556 22.8326 20.883 22.8326 21.2778C22.8326 21.6726 22.5163 22 22.1349 22ZM17.6419 16.7037H23.5302C23.3721 16.0193 22.9962 15.4098 22.4631 14.9732C21.93 14.5366 21.2705 14.2982 20.5907 14.2963C19.9098 14.298 19.2492 14.5362 18.7145 14.9727C18.1799 15.4091 17.8022 16.0187 17.6419 16.7037ZM21.9767 11.8889H19.186C18.8047 11.8889 18.4884 11.5615 18.4884 11.1667C18.4884 10.7719 18.8047 10.4444 19.186 10.4444H21.9767C22.3581 10.4444 22.6744 10.7719 22.6744 11.1667C22.6744 11.5615 22.3581 11.8889 21.9767 11.8889Z" fill="#00A0B1"/>
</svg>
