<svg width="30" height="30" viewBox="0 0 30 30" fill="none" xmlns="http://www.w3.org/2000/svg">
<rect width="30" height="30" rx="5" fill="white"/>
<path fill-rule="evenodd" clip-rule="evenodd" d="M18.87 23.908C18.9 24.068 18.81 24.238 18.66 24.298C17.53 24.748 16.29 24.988 15.01 24.988C12.8 24.988 10.76 24.278 9.11 23.058C8.97 22.958 8.93 22.758 9.02 22.608C9.57 21.628 11.72 18.478 16.47 16.718C16.65 16.648 16.85 16.738 16.91 16.918C18.1 20.108 18.66 22.808 18.87 23.908ZM24.81 16.876C24.3514 19.2948 23.0071 21.4556 21.04 22.936C20.83 23.096 20.53 22.976 20.48 22.726C20.27 21.646 19.76 19.316 18.78 16.546C18.71 16.336 18.85 16.106 19.07 16.076C21.56 15.776 23.74 16.256 24.56 16.476C24.73 16.536 24.84 16.706 24.81 16.876ZM24.58 14.807C23.56 14.627 20.96 14.247 18.3 14.537C18.14 14.557 18 14.467 17.93 14.317C17.89 14.227 17.86 14.137 17.82 14.047C17.66 13.677 17.49 13.297 17.32 12.927C17.23 12.747 17.32 12.527 17.5 12.447C20.3 11.237 21.86 9.677 22.47 8.977C22.62 8.807 22.88 8.817 23.02 8.997C24.2002 10.568 24.886 12.4548 24.99 14.417C25 14.667 24.8 14.847 24.58 14.807ZM21.43 7.78C20.91 8.41 19.45 9.91 16.68 11.01C16.5998 11.0424 16.5105 11.0439 16.4293 11.0144C16.3481 10.9849 16.2806 10.9263 16.24 10.85C15.2487 9.07263 14.1569 7.35318 12.97 5.7C12.82 5.49 12.94 5.19 13.19 5.15C13.77 5.05 14.38 5 15 5C17.42 5 19.65 5.86 21.38 7.3C21.53 7.41 21.55 7.63 21.43 7.78ZM14.01 11.828C10.22 12.778 6.87 12.908 5.65 12.928C5.42 12.928 5.25 12.708 5.31 12.488C6.03 9.688 7.95 7.348 10.48 6.058C10.63 5.978 10.82 6.028 10.92 6.168C11.44 6.888 12.85 8.918 14.23 11.308C14.34 11.508 14.24 11.768 14.01 11.828ZM15.91 14.587C16 14.777 15.89 15.007 15.69 15.077C11.26 16.507 8.61 20.057 7.81 21.277C7.68 21.477 7.4 21.487 7.25 21.307C5.85 19.587 5 17.617 5 15.227V15.047C5 14.847 5.16 14.687 5.36 14.697C6.62 14.747 10.73 14.577 15 13.347C15.16 13.297 15.34 13.377 15.41 13.527C15.58 13.877 15.75 14.227 15.91 14.587Z" fill="#00A0B1"/>
</svg>
