<svg width="32" height="32" viewBox="0 0 32 32" fill="none" xmlns="http://www.w3.org/2000/svg">
<path d="M22.7153 0.756836H9.30063C3.47373 0.756836 0 4.14235 0 9.82127V22.8797C0 28.5742 3.47373 31.9597 9.30063 31.9597H22.6993C28.5262 31.9597 31.9999 28.5742 31.9999 22.8953V9.82127C32.016 4.14235 28.5422 0.756836 22.7153 0.756836ZM15.2076 24.549C15.2076 25.1107 14.6313 25.4851 14.103 25.2667C12.1661 24.4554 9.6368 23.7066 7.87592 23.4881L7.57177 23.4569C6.59529 23.3321 5.79489 22.4428 5.79489 21.4755V9.46244C5.79489 8.26113 6.78738 7.37185 8.00399 7.46546C10.005 7.62147 12.9665 8.55756 14.8234 9.58725C15.0795 9.72766 15.2076 9.99289 15.2076 10.2581V24.549ZM26.2211 21.4599C26.2211 22.4272 25.4207 23.3165 24.4442 23.4413L24.108 23.4725C22.3631 23.7066 19.8499 24.4398 17.9129 25.2355C17.3847 25.4539 16.8084 25.0795 16.8084 24.5178V10.2425C16.8064 10.1037 16.8424 9.96696 16.9128 9.84629C16.9831 9.72562 17.0852 9.62543 17.2086 9.55605C19.0655 8.54195 21.9629 7.63707 23.9319 7.46546H23.996C25.2286 7.46546 26.2211 8.43274 26.2211 9.63406V21.4599Z" fill="white"/>
<path d="M25.2462 15.0234L25.2459 15.0232L19.8269 12.7244L19.8255 12.7238L18.6198 12.221L18.6077 12.216L18.5962 12.2097C18.4611 12.1359 18.3465 12.0299 18.2629 11.9009C18.1793 11.7718 18.1296 11.6239 18.1185 11.4707L18.1178 11.4617V11.4526V7.95195C18.1178 7.46125 17.9319 6.90626 17.6193 6.40903C17.3072 5.91253 16.8834 5.49688 16.434 5.26995C16.1562 5.13341 15.8212 5.13333 15.5433 5.26968C15.1002 5.49622 14.6792 5.91415 14.3682 6.41382C14.0567 6.91431 13.8706 7.47246 13.8706 7.96339V11.464C13.8706 11.6287 13.8076 11.7873 13.7251 11.913C13.6423 12.0392 13.5238 12.1565 13.3829 12.226L13.3765 12.2291L13.3699 12.2319L6.75404 15.0347L6.75073 15.0361L6.75072 15.0361C6.44202 15.1617 6.1475 15.4233 5.92896 15.7523C5.7104 16.0813 5.58334 16.4543 5.58334 16.7837V18.2937C5.58334 18.7164 5.74217 18.9894 5.95456 19.1259C6.1682 19.2633 6.49223 19.2986 6.89549 19.1275L12.7094 16.6569C12.7096 16.6569 12.7097 16.6568 12.7098 16.6568C12.9922 16.5356 13.2899 16.5347 13.5263 16.6885C13.7633 16.8428 13.8822 17.1159 13.8822 17.4243V20.7534C13.8822 20.9266 13.8341 21.1194 13.7652 21.2892C13.6966 21.4584 13.5963 21.6316 13.4713 21.7549L13.4715 21.7547L13.2956 21.577L13.4711 21.7551L25.2462 15.0234ZM25.2462 15.0234C25.5567 15.1545 25.8521 15.4199 26.0708 15.7504C26.2896 16.0812 26.4167 16.4544 26.4167 16.7837V18.2937C26.4167 18.7164 26.2578 18.9894 26.0455 19.1259C25.8318 19.2632 25.5079 19.2986 25.1047 19.1276L25.0069 19.3577L25.1045 19.1275L19.2897 16.6565L19.2897 16.6565L19.2836 16.654C19.0005 16.5425 18.7048 16.5404 18.4699 16.6925C18.2323 16.8463 18.1178 17.1181 18.1178 17.4243V20.7534C18.1178 20.9267 18.166 21.1201 18.237 21.2912C18.3073 21.4602 18.4108 21.6336 18.5428 21.7573L21.2329 24.4202L21.2333 24.4206C21.3303 24.5162 21.4137 24.6751 21.4569 24.8611C21.5 25.0468 21.4959 25.2295 21.4505 25.3637L21.4504 25.3642L25.2462 15.0234ZM10.5616 25.3651L10.5613 25.3642L10.3243 25.4438L10.5618 25.3658C10.5617 25.3656 10.5616 25.3653 10.5616 25.3651ZM12.3353 27.4628L12.3121 27.482L12.4715 27.6746L12.3594 27.4511C12.3514 27.4552 12.3433 27.4591 12.3353 27.4628ZM15.234 25.3866L15.0745 25.194L15.0734 25.1949C15.073 25.1953 15.0726 25.1956 15.0722 25.196L15.234 25.3866ZM16.915 25.1949L16.9139 25.194L16.7545 25.3866L16.9162 25.196C16.9158 25.1956 16.9154 25.1953 16.915 25.1949ZM19.5169 27.6746L19.6763 27.482L19.6517 27.4616C19.643 27.4577 19.6344 27.4537 19.6258 27.4495L19.5169 27.6746ZM20.9284 26.9191L20.928 26.9201L21.165 26.9996L20.9286 26.9183C20.9285 26.9186 20.9285 26.9188 20.9284 26.9191Z" fill="white" stroke="#363636" stroke-width="0.5"/>
</svg>
